<svg width="1200" height="630" viewBox="0 0 1200 630" fill="none" xmlns="http://www.w3.org/2000/svg">
  <rect width="1200" height="630" fill="#06101A"/>
  <circle cx="904" cy="94" r="240" fill="url(#glowTop)" fill-opacity="0.48"/>
  <circle cx="185" cy="577" r="294" fill="url(#glowBottom)" fill-opacity="0.28"/>
  <g opacity="0.25">
    <path d="M0 70H1200" stroke="#27435B"/>
    <path d="M0 150H1200" stroke="#27435B"/>
    <path d="M0 230H1200" stroke="#27435B"/>
    <path d="M0 310H1200" stroke="#27435B"/>
    <path d="M0 390H1200" stroke="#27435B"/>
    <path d="M0 470H1200" stroke="#27435B"/>
    <path d="M0 550H1200" stroke="#27435B"/>
    <path d="M120 0V630" stroke="#27435B"/>
    <path d="M280 0V630" stroke="#27435B"/>
    <path d="M440 0V630" stroke="#27435B"/>
    <path d="M600 0V630" stroke="#27435B"/>
    <path d="M760 0V630" stroke="#27435B"/>
    <path d="M920 0V630" stroke="#27435B"/>
    <path d="M1080 0V630" stroke="#27435B"/>
  </g>
  <rect x="70" y="62" width="476" height="506" rx="38" fill="url(#panel)" stroke="url(#panelStroke)"/>
  <rect x="598" y="103" width="532" height="422" rx="40" fill="url(#device)" stroke="url(#deviceStroke)"/>
  <rect x="628" y="133" width="472" height="362" rx="28" fill="#08121D" stroke="#173149"/>
  <path d="M655 212C703 212 712 156 760 156C808 156 820 274 864 274C908 274 929 188 975 188C1021 188 1046 243 1100 243" stroke="#6DCFFF" stroke-width="4" stroke-linecap="round"/>
  <path d="M648 282C688 282 712 330 760 330C808 330 822 209 870 209C918 209 934 356 985 356C1036 356 1052 256 1094 256" stroke="#85FFD3" stroke-width="3" stroke-linecap="round"/>
  <path d="M646 351C695 351 709 410 756 410C803 410 824 294 873 294C922 294 933 399 986 399C1039 399 1060 332 1098 332" stroke="#B0C9DF" stroke-width="2" stroke-linecap="round" opacity="0.7"/>
  <rect x="650" y="391" width="188" height="72" rx="18" fill="#102031" stroke="#22425D"/>
  <rect x="856" y="391" width="212" height="72" rx="18" fill="#102031" stroke="#22425D"/>
  <rect x="650" y="145" width="164" height="32" rx="16" fill="#0D1C2C" stroke="#20415D"/>
  <rect x="830" y="145" width="188" height="32" rx="16" fill="#0D1C2C" stroke="#20415D"/>
  <rect x="92" y="92" width="106" height="106" rx="28" fill="#09131F"/>
  <rect x="101" y="101" width="88" height="88" rx="22" fill="#12263B" stroke="#6DCFFF" stroke-opacity="0.35"/>
  <path d="M114 114H176" stroke="#87A8C8" stroke-opacity="0.44"/>
  <path d="M114 127H176" stroke="#87A8C8" stroke-opacity="0.25"/>
  <path d="M114 140H176" stroke="#87A8C8" stroke-opacity="0.22"/>
  <path d="M114 153H176" stroke="#87A8C8" stroke-opacity="0.19"/>
  <path d="M127 114V176" stroke="#87A8C8" stroke-opacity="0.25"/>
  <path d="M145 114V176" stroke="#87A8C8" stroke-opacity="0.36"/>
  <path d="M163 114V176" stroke="#87A8C8" stroke-opacity="0.25"/>
  <path d="M146.525 124.787L149.535 119.573C149.671 119.338 149.59 119.038 149.355 118.902C149.12 118.766 148.82 118.847 148.684 119.082L145.616 124.395C140.61 122.281 134.886 122.872 130.403 126.146C125.494 129.728 122.528 135.476 122.396 141.545H164.604C164.472 135.476 161.506 129.728 156.597 126.146C153.785 124.093 150.332 123.617 146.525 124.787Z" fill="#EEF6FF"/>
  <circle cx="141" cy="137" r="1.8" fill="#09131F"/>
  <circle cx="150" cy="137" r="1.8" fill="#09131F"/>
  <path d="M113 171C120.037 165.758 127.074 163.137 134.111 163.137C141.148 163.137 148.185 170.173 155.222 170.173C162.259 170.173 169.296 162.675 176 162.675" stroke="url(#markWave)" stroke-width="2.4" stroke-linecap="round"/>
  <text x="92" y="249" fill="#85FFD3" font-family="Space Grotesk, sans-serif" font-size="24" letter-spacing="4">ANDROID 29+</text>
  <text x="92" y="313" fill="#EEF6FF" font-family="Space Grotesk, sans-serif" font-size="76" font-weight="700">Podcast Recap</text>
  <text x="92" y="386" fill="#EEF6FF" font-family="Space Grotesk, sans-serif" font-size="76" font-weight="700">Local ASR</text>
  <text x="92" y="450" fill="#B0C9DF" font-family="Microsoft YaHei, PingFang SC, sans-serif" font-size="28">录音或导入音频，在本地转写和分离说话人，再把文本交给 DeepSeek 做摘要、标签、高光和问答。</text>
  <text x="92" y="512" fill="#B0C9DF" font-family="Microsoft YaHei, PingFang SC, sans-serif" font-size="26">系统内录 / 麦克风 / 本地媒体 / URL</text>
  <defs>
    <radialGradient id="glowTop" cx="0" cy="0" r="1" gradientUnits="userSpaceOnUse" gradientTransform="translate(904 94) rotate(90) scale(240)">
      <stop stop-color="#6DCFFF"/>
      <stop offset="1" stop-color="#6DCFFF" stop-opacity="0"/>
    </radialGradient>
    <radialGradient id="glowBottom" cx="0" cy="0" r="1" gradientUnits="userSpaceOnUse" gradientTransform="translate(185 577) rotate(90) scale(294)">
      <stop stop-color="#85FFD3"/>
      <stop offset="1" stop-color="#85FFD3" stop-opacity="0"/>
    </radialGradient>
    <linearGradient id="panel" x1="308" y1="62" x2="308" y2="568" gradientUnits="userSpaceOnUse">
      <stop stop-color="#0F2237"/>
      <stop offset="1" stop-color="#08111B"/>
    </linearGradient>
    <linearGradient id="panelStroke" x1="112" y1="90" x2="498" y2="530" gradientUnits="userSpaceOnUse">
      <stop stop-color="#6DCFFF" stop-opacity="0.52"/>
      <stop offset="1" stop-color="#85FFD3" stop-opacity="0.18"/>
    </linearGradient>
    <linearGradient id="device" x1="864" y1="103" x2="864" y2="525" gradientUnits="userSpaceOnUse">
      <stop stop-color="#132A42"/>
      <stop offset="1" stop-color="#0A1522"/>
    </linearGradient>
    <linearGradient id="deviceStroke" x1="620" y1="126" x2="1110" y2="512" gradientUnits="userSpaceOnUse">
      <stop stop-color="#6DCFFF" stop-opacity="0.36"/>
      <stop offset="1" stop-color="#85FFD3" stop-opacity="0.16"/>
    </linearGradient>
    <linearGradient id="markWave" x1="113" y1="163" x2="176" y2="171" gradientUnits="userSpaceOnUse">
      <stop stop-color="#6DCFFF"/>
      <stop offset="1" stop-color="#85FFD3"/>
    </linearGradient>
  </defs>
</svg>
