<svg width="128" height="128" viewBox="0 0 128 128" fill="none" xmlns="http://www.w3.org/2000/svg">
  <rect width="128" height="128" rx="32" fill="#09131F"/>
  <rect x="10" y="10" width="108" height="108" rx="26" fill="url(#panel)" stroke="url(#stroke)"/>
  <path d="M27 24.5H101" stroke="url(#grid)" stroke-opacity="0.5"/>
  <path d="M27 41H101" stroke="url(#grid)" stroke-opacity="0.3"/>
  <path d="M27 57.5H101" stroke="url(#grid)" stroke-opacity="0.24"/>
  <path d="M27 74H101" stroke="url(#grid)" stroke-opacity="0.22"/>
  <path d="M27 90.5H101" stroke="url(#grid)" stroke-opacity="0.2"/>
  <path d="M42.5 24V104" stroke="url(#grid)" stroke-opacity="0.3"/>
  <path d="M64 24V104" stroke="url(#grid)" stroke-opacity="0.4"/>
  <path d="M85.5 24V104" stroke="url(#grid)" stroke-opacity="0.3"/>
  <path d="M50.668 58.1667L55.2424 50.246C55.4487 49.8889 55.3263 49.4328 54.9691 49.2265C54.6119 49.0202 54.1558 49.1426 53.9495 49.4998L49.2865 57.5753C41.6835 54.3674 32.9879 55.2635 26.1741 60.2374C18.7108 65.6852 14.2012 74.4232 14 83.6667H78C77.7988 74.4232 73.2892 65.6852 65.8259 60.2374C61.5489 57.1141 56.2981 56.3898 50.668 58.1667Z" transform="translate(18 6)" fill="#EEF6FF"/>
  <circle cx="57.5" cy="68.5" r="3.5" fill="#09131F"/>
  <circle cx="79.5" cy="68.5" r="3.5" fill="#09131F"/>
  <path d="M22 96C31.433 88.4755 40.866 84.7133 50.299 84.7133C59.732 84.7133 69.165 94.8088 78.598 94.8088C88.031 94.8088 97.464 84.0444 106 84.0444" stroke="url(#wave)" stroke-width="3" stroke-linecap="round"/>
  <defs>
    <linearGradient id="panel" x1="64" y1="10" x2="64" y2="118" gradientUnits="userSpaceOnUse">
      <stop stop-color="#12263B"/>
      <stop offset="1" stop-color="#08111B"/>
    </linearGradient>
    <linearGradient id="stroke" x1="20" y1="18" x2="108" y2="112" gradientUnits="userSpaceOnUse">
      <stop stop-color="#6DCFFF" stop-opacity="0.6"/>
      <stop offset="1" stop-color="#85FFD3" stop-opacity="0.3"/>
    </linearGradient>
    <linearGradient id="grid" x1="27" y1="24" x2="101" y2="104" gradientUnits="userSpaceOnUse">
      <stop stop-color="#87A8C8"/>
      <stop offset="1" stop-color="#4B6178"/>
    </linearGradient>
    <linearGradient id="wave" x1="22" y1="84" x2="106" y2="96" gradientUnits="userSpaceOnUse">
      <stop stop-color="#6DCFFF"/>
      <stop offset="1" stop-color="#85FFD3"/>
    </linearGradient>
  </defs>
</svg>
